# xmcd CD database file
#
# Track frame offsets:
#	150
#	32746
#	48195
#	67609
#	81318
#	115994
#	132968
#	159071
#	181964
#	206731
#
# Disc length: 2982 seconds
#
# Revision: 3
# Processed by: cddbd v1.5.2PL0 Copyright (c) Steve Scherf et al.
# Submitted via: CDex 1.51
#
DISCID=7a0ba40a
DTITLE=Macy Gray - Live In Las Vegas - CD1 (From The House Of Blues)
DYEAR=2005
DGENRE=Soul
TTITLE0=Sex-O-Matic Venus Freak (Live)
TTITLE1=When I See You Again (Live)
TTITLE2=Relating To A Psychopath (Live)
TTITLE3=Don't Come Around (Live)
TTITLE4=Caligula (Live)
TTITLE5=Why Didn't You Call Me (Live)
TTITLE6=Things That Made Me Change (Live)
TTITLE7=Hey, Young World - Part 2 (Live)
TTITLE8=I've Committed Murder (Live)
TTITLE9=Do Something (Live)
EXTD=YEAR: 2005
EXTT0=
EXTT1=
EXTT2=
EXTT3=
EXTT4=
EXTT5=
EXTT6=
EXTT7=
EXTT8=
EXTT9=
PLAYORDER=
